<?xml version="1.0" encoding="utf-8" ?>
<svg baseProfile="full" height="673.22833" version="1.1" width="1771.6535000000001" xmlns="http://www.w3.org/2000/svg" xmlns:ev="http://www.w3.org/2001/xml-events" xmlns:xlink="http://www.w3.org/1999/xlink"><defs /><rect fill="white" height="673.22833" opacity="1" stroke-width="0" width="1771.6535000000001" x="0.0" y="0.0" /><g><g id="vlines" stroke="lightgray"><line x1="0.0" x2="0.0" y1="70.86614" y2="637.79526" /><rect fill="gray" height="566.92912" opacity="0.7" stroke="lightgray" stroke-width="1" width="35.43307" x="0.0" y="70.86614" /><text fill="black" font-family="Verdana" font-size="12" stroke="black" stroke-width="0" x="3.543307" y="67.322833">S 21</text><line x1="35.43307" x2="35.43307" y1="70.86614" y2="637.79526" /><rect fill="gray" height="566.92912" opacity="0.7" stroke="lightgray" stroke-width="1" width="35.43307" x="35.43307" y="70.86614" /><text fill="black" font-family="Verdana" font-size="12" stroke="black" stroke-width="0" x="38.976377" y="67.322833">S 22</text><line x1="70.86614" x2="70.86614" y1="70.86614" y2="637.79526" /><text fill="black" font-family="Verdana" font-size="12" stroke="black" stroke-width="0" x="74.409447" y="67.322833">M 23</text><text fill="black" font-family="Verdana" font-size="16" font-weight="bold" stroke="black" stroke-width="0" x="74.409447" y="53.149605">13</text><line x1="106.29921" x2="106.29921" y1="70.86614" y2="637.79526" /><text fill="black" font-family="Verdana" font-size="12" stroke="black" stroke-width="0" x="109.842517" y="67.322833">T 24</text><line x1="141.73228" x2="141.73228" y1="70.86614" y2="637.79526" /><text fill="black" font-family="Verdana" font-size="12" stroke="black" stroke-width="0" x="145.275587" y="67.322833">W 25</text><line x1="177.16535" x2="177.16535" y1="70.86614" y2="637.79526" /><text fill="black" font-family="Verdana" font-size="12" stroke="black" stroke-width="0" x="180.708657" y="67.322833">T 26</text><line x1="212.59842" x2="212.59842" y1="70.86614" y2="637.79526" /><text fill="black" font-family="Verdana" font-size="12" stroke="black" stroke-width="0" x="216.141727" y="67.322833">F 27</text><line x1="248.03149000000002" x2="248.03149000000002" y1="70.86614" y2="637.79526" /><rect fill="gray" height="566.92912" opacity="0.7" stroke="lightgray" stroke-width="1" width="35.43307" x="248.03149000000002" y="70.86614" /><text fill="black" font-family="Verdana" font-size="12" stroke="black" stroke-width="0" x="251.574797" y="67.322833">S 28</text><line x1="283.46456" x2="283.46456" y1="70.86614" y2="637.79526" /><rect fill="gray" height="566.92912" opacity="0.7" stroke="lightgray" stroke-width="1" width="35.43307" x="283.46456" y="70.86614" /><text fill="black" font-family="Verdana" font-size="12" stroke="black" stroke-width="0" x="287.007867" y="67.322833">S 29</text><line x1="318.89763" x2="318.89763" y1="70.86614" y2="637.79526" /><text fill="black" font-family="Verdana" font-size="12" stroke="black" stroke-width="0" x="322.440937" y="67.322833">M 30</text><text fill="black" font-family="Verdana" font-size="16" font-weight="bold" stroke="black" stroke-width="0" x="322.440937" y="53.149605">14</text><line x1="354.3307" x2="354.3307" y1="70.86614" y2="637.79526" /><text fill="black" font-family="Verdana" font-size="12" stroke="black" stroke-width="0" x="357.874007" y="67.322833">T 31</text><line x1="389.76377" x2="389.76377" y1="70.86614" y2="637.79526" /><rect fill="#76e9ff" height="566.92912" opacity="0.8" stroke="lightgray" stroke-width="0" width="7.086614000000001" x="403.936998" y="70.86614" /><text fill="black" font-family="Verdana" font-size="12" stroke="black" stroke-width="0" x="393.307077" y="67.322833">W 01</text><text fill="#800000" font-family="Verdana" font-size="18" font-weight="bold" stroke="#800000" stroke-width="0" x="393.307077" y="35.43307">April</text><line x1="425.19684" x2="425.19684" y1="70.86614" y2="637.79526" /><text fill="black" font-family="Verdana" font-size="12" stroke="black" stroke-width="0" x="428.740147" y="67.322833">T 02</text><line x1="460.62991" x2="460.62991" y1="70.86614" y2="637.79526" /><text fill="black" font-family="Verdana" font-size="12" stroke="black" stroke-width="0" x="464.173217" y="67.322833">F 03</text><line x1="496.06298000000004" x2="496.06298000000004" y1="70.86614" y2="637.79526" /><rect fill="gray" height="566.92912" opacity="0.7" stroke="lightgray" stroke-width="1" width="35.43307" x="496.06298000000004" y="70.86614" /><text fill="black" font-family="Verdana" font-size="12" stroke="black" stroke-width="0" x="499.606287" y="67.322833">S 04</text><line x1="531.49605" x2="531.49605" y1="70.86614" y2="637.79526" /><rect fill="gray" height="566.92912" opacity="0.7" stroke="lightgray" stroke-width="1" width="35.43307" x="531.49605" y="70.86614" /><text fill="black" font-family="Verdana" font-size="12" stroke="black" stroke-width="0" x="535.039357" y="67.322833">S 05</text><line x1="566.92912" x2="566.92912" y1="70.86614" y2="637.79526" /><text fill="black" font-family="Verdana" font-size="12" stroke="black" stroke-width="0" x="570.472427" y="67.322833">M 06</text><text fill="black" font-family="Verdana" font-size="16" font-weight="bold" stroke="black" stroke-width="0" x="570.472427" y="53.149605">15</text><line x1="602.36219" x2="602.36219" y1="70.86614" y2="637.79526" /><text fill="black" font-family="Verdana" font-size="12" stroke="black" stroke-width="0" x="605.905497" y="67.322833">T 07</text><line x1="637.79526" x2="637.79526" y1="70.86614" y2="637.79526" /><text fill="black" font-family="Verdana" font-size="12" stroke="black" stroke-width="0" x="641.338567" y="67.322833">W 08</text><line x1="673.22833" x2="673.22833" y1="70.86614" y2="637.79526" /><text fill="black" font-family="Verdana" font-size="12" stroke="black" stroke-width="0" x="676.7716369999999" y="67.322833">T 09</text><line x1="708.6614" x2="708.6614" y1="70.86614" y2="637.79526" /><text fill="black" font-family="Verdana" font-size="12" stroke="black" stroke-width="0" x="712.204707" y="67.322833">F 10</text><line x1="744.09447" x2="744.09447" y1="70.86614" y2="637.79526" /><rect fill="gray" height="566.92912" opacity="0.7" stroke="lightgray" stroke-width="1" width="35.43307" x="744.09447" y="70.86614" /><text fill="black" font-family="Verdana" font-size="12" stroke="black" stroke-width="0" x="747.637777" y="67.322833">S 11</text><line x1="779.52754" x2="779.52754" y1="70.86614" y2="637.79526" /><rect fill="gray" height="566.92912" opacity="0.7" stroke="lightgray" stroke-width="1" width="35.43307" x="779.52754" y="70.86614" /><text fill="black" font-family="Verdana" font-size="12" stroke="black" stroke-width="0" x="783.070847" y="67.322833">S 12</text><line x1="814.96061" x2="814.96061" y1="70.86614" y2="637.79526" /><text fill="black" font-family="Verdana" font-size="12" stroke="black" stroke-width="0" x="818.503917" y="67.322833">M 13</text><text fill="black" font-family="Verdana" font-size="16" font-weight="bold" stroke="black" stroke-width="0" x="818.503917" y="53.149605">16</text><line x1="850.39368" x2="850.39368" y1="70.86614" y2="637.79526" /><text fill="black" font-family="Verdana" font-size="12" stroke="black" stroke-width="0" x="853.936987" y="67.322833">T 14</text><line x1="885.8267500000001" x2="885.8267500000001" y1="70.86614" y2="637.79526" /><text fill="black" font-family="Verdana" font-size="12" stroke="black" stroke-width="0" x="889.370057" y="67.322833">W 15</text><line x1="921.25982" x2="921.25982" y1="70.86614" y2="637.79526" /><text fill="black" font-family="Verdana" font-size="12" stroke="black" stroke-width="0" x="924.803127" y="67.322833">T 16</text><line x1="956.69289" x2="956.69289" y1="70.86614" y2="637.79526" /><text fill="black" font-family="Verdana" font-size="12" stroke="black" stroke-width="0" x="960.236197" y="67.322833">F 17</text><line x1="992.1259600000001" x2="992.1259600000001" y1="70.86614" y2="637.79526" /><rect fill="gray" height="566.92912" opacity="0.7" stroke="lightgray" stroke-width="1" width="35.43307" x="992.1259600000001" y="70.86614" /><text fill="black" font-family="Verdana" font-size="12" stroke="black" stroke-width="0" x="995.669267" y="67.322833">S 18</text><line x1="1027.5590300000001" x2="1027.5590300000001" y1="70.86614" y2="637.79526" /><rect fill="gray" height="566.92912" opacity="0.7" stroke="lightgray" stroke-width="1" width="35.43307" x="1027.5590300000001" y="70.86614" /><text fill="black" font-family="Verdana" font-size="12" stroke="black" stroke-width="0" x="1031.102337" y="67.322833">S 19</text><line x1="1062.9921" x2="1062.9921" y1="70.86614" y2="637.79526" /><text fill="black" font-family="Verdana" font-size="12" stroke="black" stroke-width="0" x="1066.535407" y="67.322833">M 20</text><text fill="black" font-family="Verdana" font-size="16" font-weight="bold" stroke="black" stroke-width="0" x="1066.535407" y="53.149605">17</text><line x1="1098.42517" x2="1098.42517" y1="70.86614" y2="637.79526" /><text fill="black" font-family="Verdana" font-size="12" stroke="black" stroke-width="0" x="1101.968477" y="67.322833">T 21</text><line x1="1133.85824" x2="1133.85824" y1="70.86614" y2="637.79526" /><text fill="black" font-family="Verdana" font-size="12" stroke="black" stroke-width="0" x="1137.401547" y="67.322833">W 22</text><line x1="1169.29131" x2="1169.29131" y1="70.86614" y2="637.79526" /><text fill="black" font-family="Verdana" font-size="12" stroke="black" stroke-width="0" x="1172.834617" y="67.322833">T 23</text><line x1="1204.72438" x2="1204.72438" y1="70.86614" y2="637.79526" /><text fill="black" font-family="Verdana" font-size="12" stroke="black" stroke-width="0" x="1208.267687" y="67.322833">F 24</text><line x1="1240.15745" x2="1240.15745" y1="70.86614" y2="637.79526" /><rect fill="gray" height="566.92912" opacity="0.7" stroke="lightgray" stroke-width="1" width="35.43307" x="1240.15745" y="70.86614" /><text fill="black" font-family="Verdana" font-size="12" stroke="black" stroke-width="0" x="1243.700757" y="67.322833">S 25</text><line x1="1275.59052" x2="1275.59052" y1="70.86614" y2="637.79526" /><rect fill="gray" height="566.92912" opacity="0.7" stroke="lightgray" stroke-width="1" width="35.43307" x="1275.59052" y="70.86614" /><text fill="black" font-family="Verdana" font-size="12" stroke="black" stroke-width="0" x="1279.1338269999999" y="67.322833">S 26</text><line x1="1311.02359" x2="1311.02359" y1="70.86614" y2="637.79526" /><text fill="black" font-family="Verdana" font-size="12" stroke="black" stroke-width="0" x="1314.566897" y="67.322833">M 27</text><text fill="black" font-family="Verdana" font-size="16" font-weight="bold" stroke="black" stroke-width="0" x="1314.566897" y="53.149605">18</text><line x1="1346.45666" x2="1346.45666" y1="70.86614" y2="637.79526" /><text fill="black" font-family="Verdana" font-size="12" stroke="black" stroke-width="0" x="1349.999967" y="67.322833">T 28</text><line x1="1381.88973" x2="1381.88973" y1="70.86614" y2="637.79526" /><text fill="black" font-family="Verdana" font-size="12" stroke="black" stroke-width="0" x="1385.433037" y="67.322833">W 29</text><line x1="1417.3228" x2="1417.3228" y1="70.86614" y2="637.79526" /><text fill="black" font-family="Verdana" font-size="12" stroke="black" stroke-width="0" x="1420.866107" y="67.322833">T 30</text><line x1="1452.75587" x2="1452.75587" y1="70.86614" y2="637.79526" /><text fill="black" font-family="Verdana" font-size="12" stroke="black" stroke-width="0" x="1456.299177" y="67.322833">F 01</text><text fill="#800000" font-family="Verdana" font-size="18" font-weight="bold" stroke="#800000" stroke-width="0" x="1456.299177" y="35.43307">May</text><line x1="1488.18894" x2="1488.18894" y1="70.86614" y2="637.79526" /><rect fill="gray" height="566.92912" opacity="0.7" stroke="lightgray" stroke-width="1" width="35.43307" x="1488.18894" y="70.86614" /><text fill="black" font-family="Verdana" font-size="12" stroke="black" stroke-width="0" x="1491.732247" y="67.322833">S 02</text><line x1="1523.62201" x2="1523.62201" y1="70.86614" y2="637.79526" /><rect fill="gray" height="566.92912" opacity="0.7" stroke="lightgray" stroke-width="1" width="35.43307" x="1523.62201" y="70.86614" /><text fill="black" font-family="Verdana" font-size="12" stroke="black" stroke-width="0" x="1527.165317" y="67.322833">S 03</text><line x1="1559.05508" x2="1559.05508" y1="70.86614" y2="637.79526" /><text fill="black" font-family="Verdana" font-size="12" stroke="black" stroke-width="0" x="1562.598387" y="67.322833">M 04</text><text fill="black" font-family="Verdana" font-size="16" font-weight="bold" stroke="black" stroke-width="0" x="1562.598387" y="53.149605">19</text><line x1="1594.4881500000001" x2="1594.4881500000001" y1="70.86614" y2="637.79526" /><text fill="black" font-family="Verdana" font-size="12" stroke="black" stroke-width="0" x="1598.031457" y="67.322833">T 05</text><line x1="1629.92122" x2="1629.92122" y1="70.86614" y2="637.79526" /><text fill="black" font-family="Verdana" font-size="12" stroke="black" stroke-width="0" x="1633.464527" y="67.322833">W 06</text><line x1="1665.35429" x2="1665.35429" y1="70.86614" y2="637.79526" /><text fill="black" font-family="Verdana" font-size="12" stroke="black" stroke-width="0" x="1668.897597" y="67.322833">T 07</text><line x1="1700.78736" x2="1700.78736" y1="70.86614" y2="637.79526" /><text fill="black" font-family="Verdana" font-size="12" stroke="black" stroke-width="0" x="1704.330667" y="67.322833">F 08</text><line x1="1736.22043" x2="1736.22043" y1="70.86614" y2="637.79526" /><rect fill="gray" height="566.92912" opacity="0.7" stroke="lightgray" stroke-width="1" width="35.43307" x="1736.22043" y="70.86614" /><text fill="black" font-family="Verdana" font-size="12" stroke="black" stroke-width="0" x="1739.763737" y="67.322833">S 09</text><line x1="1771.6535000000001" x2="1771.6535000000001" y1="70.86614" y2="637.79526" /></g><g id="hlines" stroke="lightgray"><line x1="0.0" x2="1771.6535000000001" y1="70.86614" y2="70.86614" /><line x1="0.0" x2="1771.6535000000001" y1="106.29921" y2="106.29921" /><line x1="0.0" x2="1771.6535000000001" y1="141.73228" y2="141.73228" /><line x1="0.0" x2="1771.6535000000001" y1="177.16535" y2="177.16535" /><line x1="0.0" x2="1771.6535000000001" y1="212.59842" y2="212.59842" /><line x1="0.0" x2="1771.6535000000001" y1="248.03149000000002" y2="248.03149000000002" /><line x1="0.0" x2="1771.6535000000001" y1="283.46456" y2="283.46456" /><line x1="0.0" x2="1771.6535000000001" y1="318.89763" y2="318.89763" /><line x1="0.0" x2="1771.6535000000001" y1="354.3307" y2="354.3307" /><line x1="0.0" x2="1771.6535000000001" y1="389.76377" y2="389.76377" /><line x1="0.0" x2="1771.6535000000001" y1="425.19684" y2="425.19684" /><line x1="0.0" x2="1771.6535000000001" y1="460.62991" y2="460.62991" /><line x1="0.0" x2="1771.6535000000001" y1="496.06298000000004" y2="496.06298000000004" /><line x1="0.0" x2="1771.6535000000001" y1="531.49605" y2="531.49605" /><line x1="0.0" x2="1771.6535000000001" y1="566.92912" y2="566.92912" /><line x1="0.0" x2="1771.6535000000001" y1="602.36219" y2="602.36219" /><line x1="0.0" x2="1771.6535000000001" y1="637.79526" y2="637.79526" /></g><line stroke="black" x1="0.0" x2="1771.6535000000001" y1="70.86614" y2="70.86614" /><line stroke="black" x1="0.0" x2="1771.6535000000001" y1="637.79526" y2="637.79526" /></g><g><g><text fill="black" font-family="Verdana" font-size="18" stroke="black" stroke-width="0" x="10.629921" y="95.669289">BOE 27inch demo delivery and JDA</text><rect fill="purple" height="545.6692780000001" opacity="0.5" stroke="lightgray" stroke-width="0" width="7.086614000000001" x="2.8346456" y="88.582675" /><g><g id="ID_writing"><rect fill="#FF8080" height="28.346456" opacity="0.85" stroke="#FF8080" stroke-width="2" width="595.275576" x="3.543307" y="109.842517" /><rect fill="#909090" height="10.629921" opacity="0.2" stroke="#FF8080" stroke-width="1" width="595.275576" x="3.543307" y="127.559052" /><rect fill="#000000" height="28.346456" opacity="0.2" stroke="#FF8080" stroke-width="1" width="17.716535" x="3.543307" y="109.842517" /><rect fill="#F08000" height="10.629921" opacity="0.35" stroke="#FF8080" stroke-width="1" width="178.58267279999998" x="3.543307" y="127.559052" /><text fill="black" font-family="Verdana" font-size="15" stroke="black" stroke-width="0" x="7.086614" y="124.015745">ID writing</text></g><g id="IP_filing"><rect fill="#FF8080" height="28.346456" opacity="0.85" stroke="#FF8080" stroke-width="2" width="737.007856" x="605.905497" y="145.275587" /><rect fill="#909090" height="10.629921" opacity="0.2" stroke="#FF8080" stroke-width="1" width="737.007856" x="605.905497" y="162.992122" /><rect fill="#0000FF" height="14.173228" opacity="0.35" stroke="#FF8080" stroke-width="1" width="17.716535" x="605.905497" y="145.275587" /><text fill="black" font-family="Verdana" font-size="15" stroke="black" stroke-width="0" x="609.448804" y="159.448815">IP filing</text></g><g id="Finish_background_IP"><polygon fill="#FF3030" opacity="0.85" points="1364.173195,184.251964 1374.803116,194.881885 1364.173195,205.511806 1353.5432739999999,194.881885" stroke="#FF3030" stroke-width="2" /><text fill="black" font-family="Verdana" font-size="15" stroke="black" stroke-width="0" x="1353.5432739999999" y="194.881885">Finish background IP</text></g><g id="BOE_revision_to_GLW"><rect fill="#80FF80" height="28.346456" opacity="0.85" stroke="#80FF80" stroke-width="2" width="418.110226" x="74.409447" y="251.574797" /><rect fill="#909090" height="10.629921" opacity="0.2" stroke="#80FF80" stroke-width="1" width="418.110226" x="74.409447" y="269.291332" /><rect fill="#0000FF" height="14.173228" opacity="0.35" stroke="#80FF80" stroke-width="1" width="17.716535" x="74.409447" y="251.574797" /><text fill="black" font-family="Verdana" font-size="15" stroke="black" stroke-width="0" x="77.952754" y="265.748025">BOE revision to GLW</text></g><g id="GLW_final_review"><rect fill="#80FF80" height="28.346456" opacity="0.85" stroke="#80FF80" stroke-width="2" width="170.078736" x="570.472427" y="287.007867" /><rect fill="#909090" height="10.629921" opacity="0.2" stroke="#80FF80" stroke-width="1" width="170.078736" x="570.472427" y="304.724402" /><rect fill="#0000FF" height="14.173228" opacity="0.35" stroke="#80FF80" stroke-width="1" width="17.716535" x="570.472427" y="287.007867" /><text fill="black" font-family="Verdana" font-size="15" stroke="black" stroke-width="0" x="574.015734" y="301.18109499999997">GLW final review</text></g><g id="BOE_final_review"><rect fill="#80FF80" height="28.346456" opacity="0.85" stroke="#80FF80" stroke-width="2" width="170.078736" x="818.503917" y="322.440937" /><rect fill="#909090" height="10.629921" opacity="0.2" stroke="#80FF80" stroke-width="1" width="170.078736" x="818.503917" y="340.157472" /><rect fill="#0000FF" height="14.173228" opacity="0.35" stroke="#80FF80" stroke-width="1" width="17.716535" x="818.503917" y="322.440937" /><text fill="black" font-family="Verdana" font-size="15" stroke="black" stroke-width="0" x="822.047224" y="336.614165">BOE final review</text></g><g id="JDA_draft_compelte"><polygon fill="#FF3030" opacity="0.85" points="1080.708635,361.417314 1091.338556,372.047235 1080.708635,382.677156 1070.078714,372.047235" stroke="#FF3030" stroke-width="2" /><text fill="black" font-family="Verdana" font-size="15" stroke="black" stroke-width="0" x="1070.078714" y="372.047235">JDA draft compelte</text></g><g id="BLU_components_shipping_to_SP"><rect fill="#80FF80" height="28.346456" opacity="0.85" stroke="#80FF80" stroke-width="2" width="276.377946" x="641.338567" y="428.740147" /><rect fill="#909090" height="10.629921" opacity="0.2" stroke="#80FF80" stroke-width="1" width="276.377946" x="641.338567" y="446.456682" /><text fill="black" font-family="Verdana" font-size="15" stroke="black" stroke-width="0" x="644.881874" y="442.913375">BLU components shipping to SP</text></g><g id="Prepare_PGD__assemble_BLU"><rect fill="#80FF80" height="28.346456" opacity="0.85" stroke="#80FF80" stroke-width="2" width="276.377946" x="924.803127" y="464.173217" /><rect fill="#909090" height="10.629921" opacity="0.2" stroke="#80FF80" stroke-width="1" width="276.377946" x="924.803127" y="481.889752" /><rect fill="#0000FF" height="14.173228" opacity="0.35" stroke="#80FF80" stroke-width="1" width="17.716535" x="924.803127" y="464.173217" /><text fill="black" font-family="Verdana" font-size="15" stroke="black" stroke-width="0" x="928.346434" y="478.346445">Prepare PGD, assemble BLU</text></g><g id="Work_on_27in_glass"><rect fill="#808080" height="28.346456" opacity="0.85" stroke="#808080" stroke-width="2" width="382.677156" x="3.543307" y="499.606287" /><rect fill="#909090" height="10.629921" opacity="0.2" stroke="#808080" stroke-width="1" width="382.677156" x="3.543307" y="517.322822" /><rect fill="#0000FF" height="14.173228" opacity="0.35" stroke="#808080" stroke-width="1" width="17.716535" x="3.543307" y="499.606287" /><rect fill="#000000" height="28.346456" opacity="0.2" stroke="#808080" stroke-width="1" width="17.716535" x="3.543307" y="499.606287" /><rect fill="#F08000" height="10.629921" opacity="0.35" stroke="#808080" stroke-width="1" width="382.677156" x="3.543307" y="517.322822" /><text fill="black" font-family="Verdana" font-size="15" stroke="black" stroke-width="0" x="7.086614" y="513.779515">Work on 27in glass</text></g><g id="send_BLU_to_BJ"><rect fill="#80FF80" height="28.346456" opacity="0.85" stroke="#80FF80" stroke-width="2" width="276.377946" x="1208.267687" y="535.039357" /><rect fill="#909090" height="10.629921" opacity="0.2" stroke="#80FF80" stroke-width="1" width="276.377946" x="1208.267687" y="552.755892" /><rect fill="#0000FF" height="14.173228" opacity="0.35" stroke="#80FF80" stroke-width="1" width="17.716535" x="1208.267687" y="535.039357" /><text fill="black" font-family="Verdana" font-size="15" stroke="black" stroke-width="0" x="1211.810994" y="549.212585">send BLU to BJ</text></g><g id="Hold_BLU_to_BOE_till_JDA_effective"><polygon fill="#FF3030" opacity="0.85" points="1576.7716149999999,574.015734 1587.401536,584.645655 1576.7716149999999,595.275576 1566.141694,584.645655" stroke="#FF3030" stroke-width="2" /><text fill="black" font-family="Verdana" font-size="15" stroke="black" stroke-width="0" x="1566.141694" y="584.645655">Hold BLU to BOE till JDA effective</text></g></g></g><g><g /><g /><g><line stroke="black" stroke-dasharray="5,3" x1="595.275576" x2="602.3621899999999" y1="124.015745" y2="124.015745" /><marker id="id1" markerHeight="10" markerWidth="10" refX="5" refY="5"><circle cx="5" cy="5" fill="#000000" opacity="0.5" r="5" stroke-width="0" /></marker><line marker-end="url(#id1)" stroke="black" stroke-dasharray="5,3" x1="602.3621899999999" x2="602.3621899999999" y1="124.015745" y2="159.448815" /></g><g><line stroke="black" stroke-dasharray="5,3" x1="1339.370046" x2="1364.173195" y1="159.448815" y2="159.448815" /><marker id="id2" markerHeight="10" markerWidth="10" refX="5" refY="5"><circle cx="5" cy="5" fill="#000000" opacity="0.5" r="5" stroke-width="0" /></marker><line marker-end="url(#id2)" stroke="black" stroke-dasharray="5,3" x1="1364.173195" x2="1364.173195" y1="159.448815" y2="177.16535" /><line stroke="black" stroke-dasharray="5,3" x1="1094.881863" x2="1364.173195" y1="372.047235" y2="372.047235" /><marker id="id3" markerHeight="10" markerWidth="10" refX="5" refY="5"><circle cx="5" cy="5" fill="#000000" opacity="0.5" r="5" stroke-width="0" /></marker><line marker-end="url(#id3)" stroke="black" stroke-dasharray="5,3" x1="1364.173195" x2="1364.173195" y1="372.047235" y2="177.16535" /></g><g /><g /><g><line stroke="black" stroke-dasharray="5,3" x1="488.976366" x2="566.92912" y1="265.748025" y2="265.748025" /><marker id="id4" markerHeight="10" markerWidth="10" refX="5" refY="5"><circle cx="5" cy="5" fill="#000000" opacity="0.5" r="5" stroke-width="0" /></marker><line marker-end="url(#id4)" stroke="black" stroke-dasharray="5,3" x1="566.92912" x2="566.92912" y1="265.748025" y2="301.18109499999997" /></g><g><line stroke="black" stroke-dasharray="5,3" x1="737.007856" x2="814.96061" y1="301.18109499999997" y2="301.18109499999997" /><marker id="id5" markerHeight="10" markerWidth="10" refX="5" refY="5"><circle cx="5" cy="5" fill="#000000" opacity="0.5" r="5" stroke-width="0" /></marker><line marker-end="url(#id5)" stroke="black" stroke-dasharray="5,3" x1="814.96061" x2="814.96061" y1="301.18109499999997" y2="336.614165" /></g><g><line stroke="black" stroke-dasharray="5,3" x1="985.039346" x2="1080.708635" y1="336.614165" y2="336.614165" /><marker id="id6" markerHeight="10" markerWidth="10" refX="5" refY="5"><circle cx="5" cy="5" fill="#000000" opacity="0.5" r="5" stroke-width="0" /></marker><line marker-end="url(#id6)" stroke="black" stroke-dasharray="5,3" x1="1080.708635" x2="1080.708635" y1="336.614165" y2="354.3307" /></g><g /><g><line stroke="black" stroke-dasharray="5,3" x1="914.173206" x2="921.25982" y1="442.913375" y2="442.913375" /><marker id="id7" markerHeight="10" markerWidth="10" refX="5" refY="5"><circle cx="5" cy="5" fill="#000000" opacity="0.5" r="5" stroke-width="0" /></marker><line marker-end="url(#id7)" stroke="black" stroke-dasharray="5,3" x1="921.25982" x2="921.25982" y1="442.913375" y2="478.346445" /></g><g /><g><line stroke="black" stroke-dasharray="5,3" x1="1197.637766" x2="1204.7243799999999" y1="478.346445" y2="478.346445" /><marker id="id8" markerHeight="10" markerWidth="10" refX="5" refY="5"><circle cx="5" cy="5" fill="#000000" opacity="0.5" r="5" stroke-width="0" /></marker><line marker-end="url(#id8)" stroke="black" stroke-dasharray="5,3" x1="1204.7243799999999" x2="1204.7243799999999" y1="478.346445" y2="549.212585" /></g><g><line stroke="black" stroke-dasharray="5,3" x1="1481.102326" x2="1576.7716149999999" y1="549.212585" y2="549.212585" /><marker id="id9" markerHeight="10" markerWidth="10" refX="5" refY="5"><circle cx="5" cy="5" fill="#000000" opacity="0.5" r="5" stroke-width="0" /></marker><line marker-end="url(#id9)" stroke="black" stroke-dasharray="5,3" x1="1576.7716149999999" x2="1576.7716149999999" y1="549.212585" y2="566.92912" /><line stroke="black" stroke-dasharray="5,3" x1="1094.881863" x2="1576.7716149999999" y1="372.047235" y2="372.047235" /><marker id="id10" markerHeight="10" markerWidth="10" refX="5" refY="5"><circle cx="5" cy="5" fill="#000000" opacity="0.5" r="5" stroke-width="0" /></marker><line marker-end="url(#id10)" stroke="black" stroke-dasharray="5,3" x1="1576.7716149999999" x2="1576.7716149999999" y1="372.047235" y2="566.92912" /></g></g></g></svg>