<?xml version="1.0" encoding="utf-8" ?>
<svg baseProfile="full" height="708.6614" version="1.1" width="637.79526" xmlns="http://www.w3.org/2000/svg" xmlns:ev="http://www.w3.org/2001/xml-events" xmlns:xlink="http://www.w3.org/1999/xlink"><defs /><rect fill="white" height="708.6614" opacity="1" stroke-width="0" width="637.79526" x="0.0" y="0.0" /><g><g id="vlines" stroke="lightgray"><line x1="0.0" x2="0.0" y1="70.86614" y2="673.22833" /><text fill="#800000" font-family="Verdana" font-size="18" font-weight="bold" stroke="#800000" stroke-width="0" x="3.543307" y="35.43307">March</text><text fill="black" font-family="Verdana" font-size="16" font-weight="bold" stroke="black" stroke-width="0" x="3.543307" y="53.149605">09</text><line x1="35.43307" x2="35.43307" y1="70.86614" y2="673.22833" /><text fill="black" font-family="Verdana" font-size="16" font-weight="bold" stroke="black" stroke-width="0" x="38.976377" y="53.149605">10</text><line x1="70.86614" x2="70.86614" y1="70.86614" y2="673.22833" /><text fill="black" font-family="Verdana" font-size="16" font-weight="bold" stroke="black" stroke-width="0" x="74.409447" y="53.149605">11</text><line x1="106.29921" x2="106.29921" y1="70.86614" y2="673.22833" /><text fill="black" font-family="Verdana" font-size="16" font-weight="bold" stroke="black" stroke-width="0" x="109.842517" y="53.149605">12</text><line x1="141.73228" x2="141.73228" y1="70.86614" y2="673.22833" /><text fill="black" font-family="Verdana" font-size="16" font-weight="bold" stroke="black" stroke-width="0" x="145.275587" y="53.149605">13</text><line x1="177.16535" x2="177.16535" y1="70.86614" y2="673.22833" /><text fill="#800000" font-family="Verdana" font-size="18" font-weight="bold" stroke="#800000" stroke-width="0" x="180.708657" y="35.43307">April</text><text fill="black" font-family="Verdana" font-size="16" font-weight="bold" stroke="black" stroke-width="0" x="180.708657" y="53.149605">14</text><line x1="212.59842" x2="212.59842" y1="70.86614" y2="673.22833" /><text fill="black" font-family="Verdana" font-size="16" font-weight="bold" stroke="black" stroke-width="0" x="216.141727" y="53.149605">15</text><line x1="248.03149000000002" x2="248.03149000000002" y1="70.86614" y2="673.22833" /><text fill="black" font-family="Verdana" font-size="16" font-weight="bold" stroke="black" stroke-width="0" x="251.574797" y="53.149605">16</text><line x1="283.46456" x2="283.46456" y1="70.86614" y2="673.22833" /><text fill="black" font-family="Verdana" font-size="16" font-weight="bold" stroke="black" stroke-width="0" x="287.007867" y="53.149605">17</text><line x1="318.89763" x2="318.89763" y1="70.86614" y2="673.22833" /><text fill="#800000" font-family="Verdana" font-size="18" font-weight="bold" stroke="#800000" stroke-width="0" x="322.440937" y="35.43307">May</text><text fill="black" font-family="Verdana" font-size="16" font-weight="bold" stroke="black" stroke-width="0" x="322.440937" y="53.149605">18</text><line x1="354.3307" x2="354.3307" y1="70.86614" y2="673.22833" /><text fill="black" font-family="Verdana" font-size="16" font-weight="bold" stroke="black" stroke-width="0" x="357.874007" y="53.149605">19</text><line x1="389.76377" x2="389.76377" y1="70.86614" y2="673.22833" /><text fill="black" font-family="Verdana" font-size="16" font-weight="bold" stroke="black" stroke-width="0" x="393.307077" y="53.149605">20</text><line x1="425.19684" x2="425.19684" y1="70.86614" y2="673.22833" /><text fill="black" font-family="Verdana" font-size="16" font-weight="bold" stroke="black" stroke-width="0" x="428.740147" y="53.149605">21</text><line x1="460.62991" x2="460.62991" y1="70.86614" y2="673.22833" /><text fill="black" font-family="Verdana" font-size="16" font-weight="bold" stroke="black" stroke-width="0" x="464.173217" y="53.149605">22</text><line x1="496.06298000000004" x2="496.06298000000004" y1="70.86614" y2="673.22833" /><text fill="#800000" font-family="Verdana" font-size="18" font-weight="bold" stroke="#800000" stroke-width="0" x="499.606287" y="35.43307">June</text><text fill="black" font-family="Verdana" font-size="16" font-weight="bold" stroke="black" stroke-width="0" x="499.606287" y="53.149605">23</text><line x1="531.49605" x2="531.49605" y1="70.86614" y2="673.22833" /><text fill="black" font-family="Verdana" font-size="16" font-weight="bold" stroke="black" stroke-width="0" x="535.039357" y="53.149605">24</text><line x1="566.92912" x2="566.92912" y1="70.86614" y2="673.22833" /><text fill="black" font-family="Verdana" font-size="16" font-weight="bold" stroke="black" stroke-width="0" x="570.472427" y="53.149605">25</text><line x1="602.36219" x2="602.36219" y1="70.86614" y2="673.22833" /><text fill="black" font-family="Verdana" font-size="16" font-weight="bold" stroke="black" stroke-width="0" x="605.905497" y="53.149605">26</text><line x1="637.79526" x2="637.79526" y1="70.86614" y2="673.22833" /></g><g id="hlines" stroke="lightgray"><line x1="0.0" x2="637.79526" y1="70.86614" y2="70.86614" /><line x1="0.0" x2="637.79526" y1="106.29921" y2="106.29921" /><line x1="0.0" x2="637.79526" y1="141.73228" y2="141.73228" /><line x1="0.0" x2="637.79526" y1="177.16535" y2="177.16535" /><line x1="0.0" x2="637.79526" y1="212.59842" y2="212.59842" /><line x1="0.0" x2="637.79526" y1="248.03149000000002" y2="248.03149000000002" /><line x1="0.0" x2="637.79526" y1="283.46456" y2="283.46456" /><line x1="0.0" x2="637.79526" y1="318.89763" y2="318.89763" /><line x1="0.0" x2="637.79526" y1="354.3307" y2="354.3307" /><line x1="0.0" x2="637.79526" y1="389.76377" y2="389.76377" /><line x1="0.0" x2="637.79526" y1="425.19684" y2="425.19684" /><line x1="0.0" x2="637.79526" y1="460.62991" y2="460.62991" /><line x1="0.0" x2="637.79526" y1="496.06298000000004" y2="496.06298000000004" /><line x1="0.0" x2="637.79526" y1="531.49605" y2="531.49605" /><line x1="0.0" x2="637.79526" y1="566.92912" y2="566.92912" /><line x1="0.0" x2="637.79526" y1="602.36219" y2="602.36219" /><line x1="0.0" x2="637.79526" y1="637.79526" y2="637.79526" /><line x1="0.0" x2="637.79526" y1="673.22833" y2="673.22833" /></g><line stroke="black" x1="0.0" x2="637.79526" y1="70.86614" y2="70.86614" /><line stroke="black" x1="0.0" x2="637.79526" y1="673.22833" y2="673.22833" /></g><g><g><g><g id="IP_Brainstorming"><rect fill="#808080" height="28.346456" opacity="0.85" stroke="#808080" stroke-width="2" width="99.212596" x="38.976377" y="74.409447" /><rect fill="#909090" height="10.629921" opacity="0.2" stroke="#808080" stroke-width="1" width="99.212596" x="38.976377" y="92.125982" /><rect fill="#F08000" height="10.629921" opacity="0.35" stroke="#808080" stroke-width="1" width="99.212596" x="38.976377" y="92.125982" /><text fill="black" font-family="Verdana" font-size="15" stroke="black" stroke-width="0" x="42.519684" y="88.582675">IP Brainstorming</text></g><g id="ID_writing"><rect fill="#FF8080" height="28.346456" opacity="0.85" stroke="#FF8080" stroke-width="2" width="134.645666" x="109.842517" y="109.842517" /><rect fill="#909090" height="10.629921" opacity="0.2" stroke="#FF8080" stroke-width="1" width="134.645666" x="109.842517" y="127.559052" /><rect fill="#F08000" height="10.629921" opacity="0.35" stroke="#FF8080" stroke-width="1" width="134.645666" x="109.842517" y="127.559052" /><text fill="black" font-family="Verdana" font-size="15" stroke="black" stroke-width="0" x="113.385824" y="124.015745">ID writing</text></g><g id="IP_filing"><rect fill="#FF8080" height="28.346456" opacity="0.85" stroke="#FF8080" stroke-width="2" width="134.645666" x="216.141727" y="145.275587" /><rect fill="#909090" height="10.629921" opacity="0.2" stroke="#FF8080" stroke-width="1" width="134.645666" x="216.141727" y="162.992122" /><rect fill="#0000FF" height="14.173228" opacity="0.35" stroke="#FF8080" stroke-width="1" width="17.716535" x="216.141727" y="145.275587" /><rect fill="#F08000" height="10.629921" opacity="0.35" stroke="#FF8080" stroke-width="1" width="134.645666" x="216.141727" y="162.992122" /><text fill="black" font-family="Verdana" font-size="15" stroke="black" stroke-width="0" x="219.685034" y="159.448815">IP filing</text></g><g id="Finish_background_IP"><polygon fill="#FF3030" opacity="0.85" points="549.212585,184.251964 559.842506,194.881885 549.212585,205.511806 538.582664,194.881885" stroke="#FF3030" stroke-width="2" /><text fill="black" font-family="Verdana" font-size="15" stroke="black" stroke-width="0" x="538.582664" y="194.881885">Finish background IP</text></g><g id="JDA_GLW_revision_to_BOE"><rect fill="#808080" height="28.346456" opacity="0.85" stroke="#808080" stroke-width="2" width="170.078736" x="38.976377" y="251.574797" /><rect fill="#909090" height="10.629921" opacity="0.2" stroke="#808080" stroke-width="1" width="170.078736" x="38.976377" y="269.291332" /><rect fill="#0000FF" height="14.173228" opacity="0.35" stroke="#808080" stroke-width="1" width="17.716535" x="38.976377" y="251.574797" /><rect fill="#F08000" height="10.629921" opacity="0.35" stroke="#808080" stroke-width="1" width="170.078736" x="38.976377" y="269.291332" /><text fill="black" font-family="Verdana" font-size="15" stroke="black" stroke-width="0" x="42.519684" y="265.748025">JDA GLW revision to BOE</text></g><g id="BOE_revision_to_GLW"><rect fill="#808080" height="28.346456" opacity="0.85" stroke="#808080" stroke-width="2" width="170.078736" x="180.708657" y="287.007867" /><rect fill="#909090" height="10.629921" opacity="0.2" stroke="#808080" stroke-width="1" width="170.078736" x="180.708657" y="304.724402" /><rect fill="#0000FF" height="14.173228" opacity="0.35" stroke="#808080" stroke-width="1" width="17.716535" x="180.708657" y="287.007867" /><rect fill="#F08000" height="10.629921" opacity="0.35" stroke="#808080" stroke-width="1" width="170.078736" x="180.708657" y="304.724402" /><text fill="black" font-family="Verdana" font-size="15" stroke="black" stroke-width="0" x="184.251964" y="301.18109499999997">BOE revision to GLW</text></g><g id="GLW_final_review"><rect fill="#80FF80" height="28.346456" opacity="0.85" stroke="#80FF80" stroke-width="2" width="134.645666" x="322.440937" y="322.440937" /><rect fill="#909090" height="10.629921" opacity="0.2" stroke="#80FF80" stroke-width="1" width="134.645666" x="322.440937" y="340.157472" /><rect fill="#0000FF" height="14.173228" opacity="0.35" stroke="#80FF80" stroke-width="1" width="17.716535" x="322.440937" y="322.440937" /><text fill="black" font-family="Verdana" font-size="15" stroke="black" stroke-width="0" x="325.984244" y="336.614165">GLW final review</text></g><g id="BOE_final_review"><rect fill="#80FF80" height="28.346456" opacity="0.85" stroke="#80FF80" stroke-width="2" width="99.212596" x="464.173217" y="357.874007" /><rect fill="#909090" height="10.629921" opacity="0.2" stroke="#80FF80" stroke-width="1" width="99.212596" x="464.173217" y="375.59054199999997" /><rect fill="#0000FF" height="14.173228" opacity="0.35" stroke="#80FF80" stroke-width="1" width="17.716535" x="464.173217" y="357.874007" /><text fill="black" font-family="Verdana" font-size="15" stroke="black" stroke-width="0" x="467.716524" y="372.047235">BOE final review</text></g><g id="JDA_draft_compelte"><polygon fill="#FF3030" opacity="0.85" points="549.212585,396.850384 559.842506,407.480305 549.212585,418.110226 538.582664,407.480305" stroke="#FF3030" stroke-width="2" /><text fill="black" font-family="Verdana" font-size="15" stroke="black" stroke-width="0" x="538.582664" y="407.480305">JDA draft compelte</text></g><g id="BLU_components_shipping_to_SP"><rect fill="#80FF80" height="28.346456" opacity="0.85" stroke="#80FF80" stroke-width="2" width="99.212596" x="393.307077" y="464.173217" /><rect fill="#909090" height="10.629921" opacity="0.2" stroke="#80FF80" stroke-width="1" width="99.212596" x="393.307077" y="481.889752" /><rect fill="#0000FF" height="14.173228" opacity="0.35" stroke="#80FF80" stroke-width="1" width="17.716535" x="393.307077" y="464.173217" /><text fill="black" font-family="Verdana" font-size="15" stroke="black" stroke-width="0" x="396.850384" y="478.346445">BLU components shipping to SP</text></g><g id="Prepare_PGD__assemble_BLU"><rect fill="#80FF80" height="28.346456" opacity="0.85" stroke="#80FF80" stroke-width="2" width="63.779526" x="464.173217" y="499.606287" /><rect fill="#909090" height="10.629921" opacity="0.2" stroke="#80FF80" stroke-width="1" width="63.779526" x="464.173217" y="517.322822" /><rect fill="#0000FF" height="14.173228" opacity="0.35" stroke="#80FF80" stroke-width="1" width="17.716535" x="464.173217" y="499.606287" /><text fill="black" font-family="Verdana" font-size="15" stroke="black" stroke-width="0" x="467.716524" y="513.779515">Prepare PGD, assemble BLU</text></g><g id="Work_on_27in_glass"><rect fill="#808080" height="28.346456" opacity="0.85" stroke="#808080" stroke-width="2" width="170.078736" x="38.976377" y="535.039357" /><rect fill="#909090" height="10.629921" opacity="0.2" stroke="#808080" stroke-width="1" width="170.078736" x="38.976377" y="552.755892" /><rect fill="#0000FF" height="14.173228" opacity="0.35" stroke="#808080" stroke-width="1" width="17.716535" x="38.976377" y="535.039357" /><rect fill="#F08000" height="10.629921" opacity="0.35" stroke="#808080" stroke-width="1" width="170.078736" x="38.976377" y="552.755892" /><text fill="black" font-family="Verdana" font-size="15" stroke="black" stroke-width="0" x="42.519684" y="549.212585">Work on 27in glass</text></g><g id="send_BLU_to_BJ"><rect fill="#80FF80" height="28.346456" opacity="0.85" stroke="#80FF80" stroke-width="2" width="63.779526" x="499.606287" y="570.472427" /><rect fill="#909090" height="10.629921" opacity="0.2" stroke="#80FF80" stroke-width="1" width="63.779526" x="499.606287" y="588.188962" /><rect fill="#0000FF" height="14.173228" opacity="0.35" stroke="#80FF80" stroke-width="1" width="17.716535" x="499.606287" y="570.472427" /><text fill="black" font-family="Verdana" font-size="15" stroke="black" stroke-width="0" x="503.149594" y="584.645655">send BLU to BJ</text></g><g id="Hold_BLU_to_BOE_till_JDA_effective"><polygon fill="#FF3030" opacity="0.85" points="549.212585,609.448804 559.842506,620.078725 549.212585,630.708646 538.582664,620.078725" stroke="#FF3030" stroke-width="2" /><text fill="black" font-family="Verdana" font-size="15" stroke="black" stroke-width="0" x="538.582664" y="620.078725">Hold BLU to BOE till JDA effective</text></g></g></g><g><g /><g /><g><line stroke="black" stroke-dasharray="5,3" x1="240.944876" x2="212.59842" y1="124.015745" y2="124.015745" /><marker id="id1" markerHeight="10" markerWidth="10" refX="5" refY="5"><circle cx="5" cy="5" fill="#000000" opacity="0.5" r="5" stroke-width="0" /></marker><line marker-end="url(#id1)" stroke="black" stroke-dasharray="5,3" x1="212.59842" x2="212.59842" y1="124.015745" y2="159.448815" /></g><g><line stroke="black" stroke-dasharray="5,3" x1="347.244086" x2="549.212585" y1="159.448815" y2="159.448815" /><marker id="id2" markerHeight="10" markerWidth="10" refX="5" refY="5"><circle cx="5" cy="5" fill="#000000" opacity="0.5" r="5" stroke-width="0" /></marker><line marker-end="url(#id2)" stroke="black" stroke-dasharray="5,3" x1="549.212585" x2="549.212585" y1="159.448815" y2="177.16535" /><line stroke="black" stroke-dasharray="5,3" x1="563.385813" x2="549.212585" y1="407.480305" y2="407.480305" /><marker id="id3" markerHeight="10" markerWidth="10" refX="5" refY="5"><circle cx="5" cy="5" fill="#000000" opacity="0.5" r="5" stroke-width="0" /></marker><line marker-end="url(#id3)" stroke="black" stroke-dasharray="5,3" x1="549.212585" x2="549.212585" y1="407.480305" y2="177.16535" /></g><g /><g><line stroke="black" stroke-dasharray="5,3" x1="205.511806" x2="177.16535" y1="265.748025" y2="265.748025" /><marker id="id4" markerHeight="10" markerWidth="10" refX="5" refY="5"><circle cx="5" cy="5" fill="#000000" opacity="0.5" r="5" stroke-width="0" /></marker><line marker-end="url(#id4)" stroke="black" stroke-dasharray="5,3" x1="177.16535" x2="177.16535" y1="265.748025" y2="301.18109499999997" /></g><g><line stroke="black" stroke-dasharray="5,3" x1="347.244086" x2="318.89763" y1="301.18109499999997" y2="301.18109499999997" /><marker id="id5" markerHeight="10" markerWidth="10" refX="5" refY="5"><circle cx="5" cy="5" fill="#000000" opacity="0.5" r="5" stroke-width="0" /></marker><line marker-end="url(#id5)" stroke="black" stroke-dasharray="5,3" x1="318.89763" x2="318.89763" y1="301.18109499999997" y2="336.614165" /></g><g><line stroke="black" stroke-dasharray="5,3" x1="453.543296" x2="460.62991" y1="336.614165" y2="336.614165" /><marker id="id6" markerHeight="10" markerWidth="10" refX="5" refY="5"><circle cx="5" cy="5" fill="#000000" opacity="0.5" r="5" stroke-width="0" /></marker><line marker-end="url(#id6)" stroke="black" stroke-dasharray="5,3" x1="460.62991" x2="460.62991" y1="336.614165" y2="372.047235" /></g><g><line stroke="black" stroke-dasharray="5,3" x1="559.842506" x2="549.212585" y1="372.047235" y2="372.047235" /><marker id="id7" markerHeight="10" markerWidth="10" refX="5" refY="5"><circle cx="5" cy="5" fill="#000000" opacity="0.5" r="5" stroke-width="0" /></marker><line marker-end="url(#id7)" stroke="black" stroke-dasharray="5,3" x1="549.212585" x2="549.212585" y1="372.047235" y2="389.76377" /></g><g /><g><line stroke="black" stroke-dasharray="5,3" x1="488.976366" x2="460.62991" y1="478.346445" y2="478.346445" /><marker id="id8" markerHeight="10" markerWidth="10" refX="5" refY="5"><circle cx="5" cy="5" fill="#000000" opacity="0.5" r="5" stroke-width="0" /></marker><line marker-end="url(#id8)" stroke="black" stroke-dasharray="5,3" x1="460.62991" x2="460.62991" y1="478.346445" y2="513.779515" /></g><g /><g><line stroke="black" stroke-dasharray="5,3" x1="524.409436" x2="496.06298" y1="513.779515" y2="513.779515" /><marker id="id9" markerHeight="10" markerWidth="10" refX="5" refY="5"><circle cx="5" cy="5" fill="#000000" opacity="0.5" r="5" stroke-width="0" /></marker><line marker-end="url(#id9)" stroke="black" stroke-dasharray="5,3" x1="496.06298" x2="496.06298" y1="513.779515" y2="584.645655" /></g><g><line stroke="black" stroke-dasharray="5,3" x1="559.842506" x2="549.212585" y1="584.645655" y2="584.645655" /><marker id="id10" markerHeight="10" markerWidth="10" refX="5" refY="5"><circle cx="5" cy="5" fill="#000000" opacity="0.5" r="5" stroke-width="0" /></marker><line marker-end="url(#id10)" stroke="black" stroke-dasharray="5,3" x1="549.212585" x2="549.212585" y1="584.645655" y2="602.3621899999999" /><line stroke="black" stroke-dasharray="5,3" x1="563.385813" x2="549.212585" y1="407.480305" y2="407.480305" /><marker id="id11" markerHeight="10" markerWidth="10" refX="5" refY="5"><circle cx="5" cy="5" fill="#000000" opacity="0.5" r="5" stroke-width="0" /></marker><line marker-end="url(#id11)" stroke="black" stroke-dasharray="5,3" x1="549.212585" x2="549.212585" y1="407.480305" y2="602.3621899999999" /></g></g></g></svg>